<?xml version="1.0" encoding="UTF-8"?>
<svg xmlns="http://www.w3.org/2000/svg" xmlns:xlink="http://www.w3.org/1999/xlink" width="32px" height="32px" viewBox="0 0 32 32" version="1.1">
<g id="surface1">
<path style=" stroke:none;fill-rule:evenodd;fill:rgb(9.411765%,8.627451%,8.627451%);fill-opacity:1;" d="M 16 1.277344 C 7.664062 1.277344 0.902344 8.035156 0.902344 16.371094 C 0.902344 23.042969 5.230469 28.703125 11.226562 30.699219 C 11.980469 30.839844 12.257812 30.371094 12.257812 29.972656 C 12.257812 29.613281 12.246094 28.421875 12.238281 27.160156 C 8.039062 28.074219 7.152344 25.378906 7.152344 25.378906 C 6.464844 23.636719 5.476562 23.171875 5.476562 23.171875 C 4.105469 22.234375 5.578125 22.253906 5.578125 22.253906 C 7.09375 22.359375 7.894531 23.808594 7.894531 23.808594 C 9.238281 26.117188 11.425781 25.449219 12.285156 25.066406 C 12.421875 24.089844 12.8125 23.421875 13.246094 23.046875 C 9.890625 22.664062 6.367188 21.371094 6.367188 15.585938 C 6.367188 13.9375 6.957031 12.589844 7.921875 11.53125 C 7.765625 11.152344 7.25 9.617188 8.066406 7.539062 C 8.066406 7.539062 9.335938 7.132812 12.21875 9.085938 C 13.425781 8.75 14.714844 8.582031 16 8.574219 C 17.28125 8.582031 18.574219 8.75 19.78125 9.085938 C 22.664062 7.132812 23.929688 7.535156 23.929688 7.535156 C 24.75 9.617188 24.234375 11.152344 24.078125 11.53125 C 25.046875 12.589844 25.632812 13.9375 25.632812 15.585938 C 25.632812 21.382812 22.097656 22.660156 18.738281 23.035156 C 19.28125 23.5 19.761719 24.421875 19.761719 25.828125 C 19.761719 27.847656 19.746094 29.476562 19.746094 29.972656 C 19.746094 30.375 20.015625 30.84375 20.78125 30.695312 C 26.777344 28.699219 31.097656 23.039062 31.097656 16.371094 C 31.097656 8.035156 24.335938 1.277344 16 1.277344 Z M 16 1.277344 "/>
<path style=" stroke:none;fill-rule:nonzero;fill:rgb(9.411765%,8.627451%,8.627451%);fill-opacity:1;" d="M 6.621094 22.953125 C 6.585938 23.027344 6.46875 23.050781 6.363281 22.996094 C 6.253906 22.949219 6.191406 22.847656 6.226562 22.769531 C 6.257812 22.695312 6.378906 22.671875 6.488281 22.722656 C 6.597656 22.773438 6.660156 22.875 6.621094 22.953125 Z M 7.234375 23.632812 C 7.160156 23.699219 7.019531 23.667969 6.925781 23.5625 C 6.824219 23.457031 6.808594 23.316406 6.878906 23.25 C 6.953125 23.183594 7.089844 23.214844 7.191406 23.320312 C 7.289062 23.425781 7.308594 23.566406 7.234375 23.632812 Z M 7.828125 24.503906 C 7.734375 24.566406 7.585938 24.507812 7.492188 24.371094 C 7.398438 24.238281 7.398438 24.078125 7.492188 24.011719 C 7.585938 23.949219 7.734375 24.007812 7.832031 24.140625 C 7.921875 24.277344 7.921875 24.4375 7.828125 24.503906 Z M 8.644531 25.34375 C 8.5625 25.433594 8.382812 25.410156 8.253906 25.285156 C 8.125 25.164062 8.085938 24.992188 8.167969 24.898438 C 8.253906 24.808594 8.429688 24.832031 8.558594 24.957031 C 8.691406 25.078125 8.730469 25.253906 8.644531 25.34375 Z M 9.769531 25.832031 C 9.730469 25.949219 9.5625 26.003906 9.390625 25.953125 C 9.21875 25.902344 9.109375 25.761719 9.144531 25.644531 C 9.179688 25.523438 9.347656 25.46875 9.519531 25.523438 C 9.691406 25.574219 9.804688 25.710938 9.769531 25.832031 Z M 11.003906 25.921875 C 11.007812 26.046875 10.863281 26.148438 10.683594 26.152344 C 10.503906 26.15625 10.355469 26.054688 10.355469 25.933594 C 10.355469 25.804688 10.496094 25.703125 10.679688 25.699219 C 10.855469 25.699219 11.003906 25.796875 11.003906 25.921875 Z M 12.152344 25.726562 C 12.175781 25.847656 12.050781 25.972656 11.871094 26.003906 C 11.695312 26.039062 11.535156 25.960938 11.511719 25.839844 C 11.492188 25.71875 11.617188 25.59375 11.792969 25.558594 C 11.972656 25.53125 12.132812 25.601562 12.152344 25.726562 Z M 12.152344 25.726562 "/>
</g>
</svg>
